<?xml version="1.0" encoding="UTF-8" standalone="no"?>
<!-- Created with Inkscape (http://www.inkscape.org/) -->

<svg
   width="183.32562mm"
   height="61.263222mm"
   viewBox="0 0 183.32562 61.263222"
   version="1.1"
   id="svg1"
   xml:space="preserve"
   xmlns:xlink="http://www.w3.org/1999/xlink"
   xmlns="http://www.w3.org/2000/svg"
   xmlns:svg="http://www.w3.org/2000/svg"><defs
     id="defs1"><linearGradient
       id="linearGradient10"><stop
         style="stop-color:#b88a04;stop-opacity:1;"
         offset="0"
         id="stop11" /><stop
         style="stop-color:#dbb136;stop-opacity:1;"
         offset="0.59422493"
         id="stop13" /><stop
         style="stop-color:#fcd664;stop-opacity:1;"
         offset="1"
         id="stop12" /></linearGradient><linearGradient
       id="linearGradient8"><stop
         style="stop-color:#1a2843;stop-opacity:1;"
         offset="0"
         id="stop8" /><stop
         style="stop-color:#22418f;stop-opacity:1;"
         offset="0.52055269"
         id="stop10" /><stop
         style="stop-color:#416ad8;stop-opacity:1;"
         offset="1"
         id="stop9" /></linearGradient><linearGradient
       xlink:href="#linearGradient8"
       id="linearGradient9"
       x1="61.354633"
       y1="147.28506"
       x2="134.67964"
       y2="76.46875"
       gradientUnits="userSpaceOnUse" /><linearGradient
       xlink:href="#linearGradient10"
       id="linearGradient12"
       x1="81.734299"
       y1="124.43884"
       x2="125.23746"
       y2="90.134384"
       gradientUnits="userSpaceOnUse" /></defs><g
     id="layer1"
     transform="translate(-74.368555,-117.86839)"><g
       id="g1"
       transform="translate(4.842807,36.233992)"><path
         id="path2-2"
         d="m 100.1573,81.634395 c 16.91428,0 30.63134,13.716711 30.63134,30.631705 0,16.91393 -13.71706,30.63152 -30.63134,30.63152 -16.914425,0 -30.631554,-13.71759 -30.631554,-30.63152 0,-16.914994 13.717129,-30.631705 30.631554,-30.631705"
         style="fill:url(#linearGradient9);fill-opacity:1;fill-rule:evenodd;stroke:none;stroke-width:0.0352778" /><path
         id="path3"
         d="m 128.31038,100.18275 c -2.60421,-0.816684 -5.16855,-1.426284 -7.70784,-1.889484 -0.1838,-1.35819 -0.40252,-2.69381 -0.65052,-4.04248 2.06022,0.51506 4.13561,1.13312 6.23499,1.86655 0.80469,1.29434 1.51589,2.65218 2.12337,4.065414 z M 107.9932,82.648278 c 1.27953,0.337961 2.52624,0.756356 3.73415,1.250245 1.24072,4.188883 2.15512,8.276873 2.74708,12.596283 0.6731,4.905734 0.90805,10.248904 0.88618,15.480954 -10e-4,4.16489 -1.09079,7.72583 -3.92112,10.77101 -2.81235,3.02648 -6.82625,4.92055 -11.28219,4.92055 -8.504061,0 -15.40122,-6.89752 -15.40122,-15.40122 0,-6.92292 4.57059,-12.267504 10.85709,-14.016224 4.40937,-1.2259 9.28688,-0.68545 13.81866,-0.33126 0.0917,1.49331 0.17145,2.694874 0.22225,4.174424 -3.95958,-0.21731 -9.29252,-0.67839 -13.208354,0.4512 -4.497212,1.29682 -7.599187,4.72335 -7.599187,9.72186 0,6.24487 5.065184,11.3104 11.310761,11.3104 2.62431,0 5.04049,-0.89429 6.95995,-2.395 3.59128,-2.80776 3.93595,-7.55439 3.84175,-12.16731 -0.0462,-2.25249 -0.0734,-4.47393 -0.11677,-6.42197 -0.0575,-2.55587 -0.25258,-5.174544 -0.58208,-7.860594 -0.47695,-3.88726 -1.23578,-7.912456 -2.26695,-12.083348 z m 4.53425,1.58997 c 1.45415,0.643114 2.85045,1.39453 4.17548,2.246841 1.01812,3.301648 1.83057,6.582837 2.44652,10.009717 0.70978,3.947234 1.14829,8.178454 1.397,12.406494 0.19614,3.33728 -0.12065,6.67703 -1.11972,9.71515 -2.65501,8.07191 -9.46397,14.23564 -19.26943,14.23564 -11.367558,0 -20.586348,-9.21914 -20.586348,-20.58635 0,-11.36685 9.21879,-20.199704 20.586348,-20.199704 3.0547,-0.0307 5.98629,0.0723 8.93445,0.34784 0.0974,1.51906 0.20214,3.03142 0.2981,4.53707 -1.59597,-0.14993 -3.18559,-0.30162 -4.79108,-0.38699 -2.10643,-0.11219 -4.45099,-0.24483 -6.560253,0.0169 -7.945614,0.98566 -14.083242,7.456664 -14.083242,15.684854 0,8.9468 7.671859,16.20168 16.202025,16.20273 7.43797,3.6e-4 13.64121,-5.00027 15.51482,-11.82229 0.69038,-2.51072 0.66075,-5.01544 0.4953,-7.63199 -0.14182,-2.25249 -0.26388,-4.47393 -0.39088,-6.42197 -0.16581,-2.55587 -0.47272,-5.174544 -0.91652,-7.860594 -0.56092,-3.39126 -1.34055,-6.887284 -2.33257,-10.493378 z m 16.10925,16.731192 c 0.49318,1.24284 0.90699,2.52589 1.23649,3.84246 -2.98133,-0.87983 -5.90762,-1.46085 -8.8004,-1.85455 -0.0885,-1.3582 -0.2159,-2.66312 -0.37606,-3.943354 2.73015,0.50024 5.45042,1.142644 7.93997,1.955444"
         style="fill:url(#linearGradient12);fill-opacity:1;fill-rule:evenodd;stroke:none;stroke-width:0.0352778" /></g><g
       id="g2"
       transform="translate(0,-2.5273903)"><path
         id="path1"
         d="m 156.41611,149.41547 h 3.19084 l 2.17826,-9.15761 2.17883,9.15761 h 3.19041 l -2.16902,-9.11793 c -0.21318,-0.89753 -0.40498,-1.70324 -0.61376,-2.58067 -0.39193,-1.04288 -1.3983,-1.78509 -2.57778,-1.78509 -1.2398,0 -2.28851,0.82006 -2.63342,1.94715 -0.20683,0.86995 -0.40019,1.68272 -0.61722,2.59486 z m 80.05826,-13.48962 c 0.1771,0 0.35172,0.007 0.52564,0.0204 l 3.83434,-0.005 v 3.12745 c -1.54869,0 -2.96545,0.005 -4.35998,0.005 -1.98649,0 -3.59727,1.61078 -3.59727,3.59706 0,1.98604 1.61078,3.59682 3.59727,3.59682 0.31503,0 0.62054,-0.0405 0.91193,-0.11698 v -3.48904 h 3.44805 v 6.75403 h -3.44805 v -0.062 c -0.29809,0.0405 -0.60289,0.0622 -0.91193,0.0622 -3.72462,0 -6.74511,-3.02041 -6.74511,-6.74497 0,-3.72469 3.02049,-6.74479 6.74511,-6.74479 z m -15.74835,0.006 h -2.48849 v 13.48369 h 3.4484 v -10.33956 h 2.53259 c 0.92463,0 1.67499,0.75075 1.67499,1.67555 0,0.92481 -0.75036,1.6757 -1.67499,1.6757 h -1.97767 l 3.56235,6.98831 h 3.37538 l -2.46416,-4.83485 c 1.38783,-0.79968 2.3234,-2.29927 2.3234,-4.01574 0,-2.55764 -2.07539,-4.6331 -4.63303,-4.6331 z m 20.69112,13.48369 h 3.19017 l 2.17946,-9.15761 2.17841,9.15761 h 3.19052 l -2.16958,-9.11793 c -0.21273,-0.89753 -0.40499,-1.70324 -0.61348,-2.58067 -0.39194,-1.04288 -1.39842,-1.78509 -2.5774,-1.78509 -1.24001,0 -2.28917,0.82006 -2.63349,1.94715 -0.20743,0.86995 -0.40075,1.68272 -0.61736,2.59486 z m -52.98969,0 h 3.19087 l 2.17876,-9.15761 1.28376,5.39626 c 0.30727,1.29149 0.75212,2.6494 2.47085,2.6494 1.90747,0 2.22427,-1.61202 2.55447,-2.9989 l 1.20085,-5.04676 2.17876,9.15761 h 3.19087 l -2.16958,-9.11793 c -0.21343,-0.89753 -0.40534,-1.70324 -0.61419,-2.58067 -0.39123,-1.04288 -1.3977,-1.78509 -2.57739,-1.78509 -1.24001,0 -2.28882,0.82006 -2.63349,1.94715 -0.20672,0.86995 -0.4004,1.68272 -0.617,2.59486 l -0.51294,2.15565 -0.55492,-2.3319 c -0.21343,-0.89753 -0.4057,-1.70324 -0.61384,-2.58067 -0.39229,-1.04288 -1.39841,-1.78509 -2.5781,-1.78509 -1.23966,0 -2.28882,0.82006 -2.63313,1.94715 -0.20673,0.86995 -0.4004,1.68272 -0.61701,2.59486 z m 18.49332,0 h 3.19087 l 2.1784,-9.15761 2.17876,9.15761 h 3.19088 l -2.16959,-9.11793 c -0.21308,-0.89753 -0.40463,-1.70324 -0.61383,-2.58067 -0.39158,-1.04288 -1.39806,-1.78509 -2.57775,-1.78509 -1.24001,0 -2.28812,0.82006 -2.63313,1.94715 -0.20708,0.86995 -0.4004,1.68272 -0.61736,2.59486 z m -29.66474,0 h 3.1906 l 2.17907,-9.15761 2.17907,9.15761 h 3.19017 l -2.16923,-9.11793 c -0.21308,-0.89753 -0.40534,-1.70324 -0.61348,-2.58067 -0.39229,-1.04288 -1.39837,-1.78509 -2.57785,-1.78509 -1.23994,0 -2.28865,0.82006 -2.63342,1.94715 -0.20725,0.86995 -0.40033,1.68272 -0.61722,2.59486 z m -6.01168,-13.48369 c 1.81776,0 3.63569,8.1e-4 5.45426,8.1e-4 v 3.05512 h -1.4115 -3.73091 l -0.31185,0.043 c -0.4801,0.13585 -0.83302,0.57781 -0.83302,1.10158 0,0.63197 0.51291,1.14515 1.14487,1.14515 h 1.45976 c 1.39016,0 2.00932,-0.0218 2.95106,0.84311 0.83633,0.7681 1.36151,1.87039 1.36151,3.09397 0,2.31813 -1.88281,4.20094 -4.20095,4.20094 -1.8179,0 -3.63597,-10e-4 -5.45387,-10e-4 v -3.0547 h 1.41125 3.73119 l 0.31143,-0.0433 c 0.48038,-0.13599 0.83302,-0.57795 0.83302,-1.10186 0,-0.63172 -0.51305,-1.14473 -1.14445,-1.14473 h -1.74198 c -1.15757,0 -2.03648,-0.15575 -2.88756,-1.05862 -0.70817,-0.7523 -1.14279,-1.76502 -1.14279,-2.87902 0,-2.31771 1.88281,-4.20038 4.20053,-4.20038 z m -15.0858,0 h -3.44841 v 9.57241 c 0,0.42457 -0.34713,0.7717 -0.77142,0.7717 h -2.47068 v 3.13958 h 3.55121 c 1.72667,0 3.1393,-1.41305 3.1393,-3.13958 v -10.34411"
         style="fill:#2548a4;fill-opacity:1;fill-rule:evenodd;stroke:none;stroke-width:0.0352778" /><text
         xml:space="preserve"
         style="font-style:normal;font-variant:normal;font-weight:900;font-stretch:normal;font-size:12.7px;font-family:Avenir;-inkscape-font-specification:'Avenir, Heavy';font-variant-ligatures:normal;font-variant-caps:normal;font-variant-numeric:normal;font-variant-east-asian:normal;letter-spacing:0.166688px;word-spacing:0px;fill:#2548a4;fill-opacity:1;fill-rule:evenodd;stroke-width:0.0785812;stroke-linecap:round;stroke-linejoin:round;paint-order:stroke fill markers"
         x="149.37914"
         y="165.90033"
         id="text1"><tspan
           id="tspan1"
           style="font-style:normal;font-variant:normal;font-weight:900;font-stretch:normal;font-size:12.7px;font-family:Avenir;-inkscape-font-specification:'Avenir, Heavy';font-variant-ligatures:normal;font-variant-caps:normal;font-variant-numeric:normal;font-variant-east-asian:normal;letter-spacing:0.166688px;fill:#2548a4;fill-opacity:1;stroke-width:0.0785812"
           x="149.37914"
           y="165.90033">TRAFFIC INSIGHT</tspan></text></g></g></svg>
