<?xml version="1.0" encoding="UTF-8" standalone="no"?>
<!-- Created with Inkscape (http://www.inkscape.org/) -->

<svg
   width="61.262894mm"
   height="61.263222mm"
   viewBox="0 0 61.262894 61.263222"
   version="1.1"
   id="svg1"
   xml:space="preserve"
   xmlns:xlink="http://www.w3.org/1999/xlink"
   xmlns="http://www.w3.org/2000/svg"
   xmlns:svg="http://www.w3.org/2000/svg"><defs
     id="defs1"><linearGradient
       id="linearGradient10"><stop
         style="stop-color:#b88a04;stop-opacity:1;"
         offset="0"
         id="stop11" /><stop
         style="stop-color:#dbb136;stop-opacity:1;"
         offset="0.59422493"
         id="stop13" /><stop
         style="stop-color:#fcd664;stop-opacity:1;"
         offset="1"
         id="stop12" /></linearGradient><linearGradient
       id="linearGradient8"><stop
         style="stop-color:#1a2843;stop-opacity:1;"
         offset="0"
         id="stop8" /><stop
         style="stop-color:#22418f;stop-opacity:1;"
         offset="0.52055269"
         id="stop10" /><stop
         style="stop-color:#416ad8;stop-opacity:1;"
         offset="1"
         id="stop9" /></linearGradient><linearGradient
       xlink:href="#linearGradient8"
       id="linearGradient9"
       x1="61.354633"
       y1="147.28506"
       x2="134.67964"
       y2="76.46875"
       gradientUnits="userSpaceOnUse" /><linearGradient
       xlink:href="#linearGradient10"
       id="linearGradient12"
       x1="81.734299"
       y1="124.43884"
       x2="125.23746"
       y2="90.134384"
       gradientUnits="userSpaceOnUse" /></defs><g
     id="layer1"
     transform="translate(-74.368555,-117.86839)"><g
       id="g1"
       transform="translate(4.842807,36.233992)"><path
         id="path2-2"
         d="m 100.1573,81.634395 c 16.91428,0 30.63134,13.716711 30.63134,30.631705 0,16.91393 -13.71706,30.63152 -30.63134,30.63152 -16.914425,0 -30.631554,-13.71759 -30.631554,-30.63152 0,-16.914994 13.717129,-30.631705 30.631554,-30.631705"
         style="fill:url(#linearGradient9);fill-opacity:1;fill-rule:evenodd;stroke:none;stroke-width:0.0352778" /><path
         id="path3"
         d="m 128.31038,100.18275 c -2.60421,-0.816684 -5.16855,-1.426284 -7.70784,-1.889484 -0.1838,-1.35819 -0.40252,-2.69381 -0.65052,-4.04248 2.06022,0.51506 4.13561,1.13312 6.23499,1.86655 0.80469,1.29434 1.51589,2.65218 2.12337,4.065414 z M 107.9932,82.648278 c 1.27953,0.337961 2.52624,0.756356 3.73415,1.250245 1.24072,4.188883 2.15512,8.276873 2.74708,12.596283 0.6731,4.905734 0.90805,10.248904 0.88618,15.480954 -10e-4,4.16489 -1.09079,7.72583 -3.92112,10.77101 -2.81235,3.02648 -6.82625,4.92055 -11.28219,4.92055 -8.504061,0 -15.40122,-6.89752 -15.40122,-15.40122 0,-6.92292 4.57059,-12.267504 10.85709,-14.016224 4.40937,-1.2259 9.28688,-0.68545 13.81866,-0.33126 0.0917,1.49331 0.17145,2.694874 0.22225,4.174424 -3.95958,-0.21731 -9.29252,-0.67839 -13.208354,0.4512 -4.497212,1.29682 -7.599187,4.72335 -7.599187,9.72186 0,6.24487 5.065184,11.3104 11.310761,11.3104 2.62431,0 5.04049,-0.89429 6.95995,-2.395 3.59128,-2.80776 3.93595,-7.55439 3.84175,-12.16731 -0.0462,-2.25249 -0.0734,-4.47393 -0.11677,-6.42197 -0.0575,-2.55587 -0.25258,-5.174544 -0.58208,-7.860594 -0.47695,-3.88726 -1.23578,-7.912456 -2.26695,-12.083348 z m 4.53425,1.58997 c 1.45415,0.643114 2.85045,1.39453 4.17548,2.246841 1.01812,3.301648 1.83057,6.582837 2.44652,10.009717 0.70978,3.947234 1.14829,8.178454 1.397,12.406494 0.19614,3.33728 -0.12065,6.67703 -1.11972,9.71515 -2.65501,8.07191 -9.46397,14.23564 -19.26943,14.23564 -11.367558,0 -20.586348,-9.21914 -20.586348,-20.58635 0,-11.36685 9.21879,-20.199704 20.586348,-20.199704 3.0547,-0.0307 5.98629,0.0723 8.93445,0.34784 0.0974,1.51906 0.20214,3.03142 0.2981,4.53707 -1.59597,-0.14993 -3.18559,-0.30162 -4.79108,-0.38699 -2.10643,-0.11219 -4.45099,-0.24483 -6.560253,0.0169 -7.945614,0.98566 -14.083242,7.456664 -14.083242,15.684854 0,8.9468 7.671859,16.20168 16.202025,16.20273 7.43797,3.6e-4 13.64121,-5.00027 15.51482,-11.82229 0.69038,-2.51072 0.66075,-5.01544 0.4953,-7.63199 -0.14182,-2.25249 -0.26388,-4.47393 -0.39088,-6.42197 -0.16581,-2.55587 -0.47272,-5.174544 -0.91652,-7.860594 -0.56092,-3.39126 -1.34055,-6.887284 -2.33257,-10.493378 z m 16.10925,16.731192 c 0.49318,1.24284 0.90699,2.52589 1.23649,3.84246 -2.98133,-0.87983 -5.90762,-1.46085 -8.8004,-1.85455 -0.0885,-1.3582 -0.2159,-2.66312 -0.37606,-3.943354 2.73015,0.50024 5.45042,1.142644 7.93997,1.955444"
         style="fill:url(#linearGradient12);fill-opacity:1;fill-rule:evenodd;stroke:none;stroke-width:0.0352778" /></g></g></svg>
